# xmcd CD database file
#
# Track frame offsets:
#	150
#	20037
#	42265
#	69982
#	87062
#	113724
#	140965
#	170962
#	189753
#	209911
#	233599
#
# Disc length: 3520 seconds
#
# Revision: 10
# Processed by: cddbd v1.5.2PL0 Copyright (c) Steve Scherf et al.
# Submitted via: CDex 1.70beta3
#
DISCID=9d0dbe0b
DTITLE=DREAM THEATER - GREATEST HIT (...and 21 other pretty cool songs) - Disc 2 (The Light Side)
DYEAR=2008
DGENRE=Progressive Metal
TTITLE0=Another Day (2007 Remix)
TTITLE1=To Live Forever
TTITLE2=Lifting Shadows Off A Dream
TTITLE3=The Silent Man
TTITLE4=Hollow Years
TTITLE5=Through Her Eyes (Alternate Album Mix)
TTITLE6=The Spirit Carries On
TTITLE7=Solitary Shell (Edited Version)
TTITLE8=I Walk Beside You
TTITLE9=The Answer Lies Within
TTITLE10=Disappear
EXTD=YEAR: 2008
EXTT0=
EXTT1=
EXTT2=
EXTT3=
EXTT4=
EXTT5=
EXTT6=
EXTT7=
EXTT8=
EXTT9=
EXTT10=
PLAYORDER=
